<svg xmlns="http://www.w3.org/2000/svg" width="347.606" height="176.514" viewBox="0 0 347.606 176.514"><g transform="translate(-24.551 -21.375)"><g transform="translate(143.233 21.375)"><path d="M279.01,46.753c7.1,2.113,11.933,6.941,10.79,10.791s-7.827,5.263-14.936,3.157-11.933-6.948-10.785-10.794S271.909,44.653,279.01,46.753Z" transform="translate(-168.358 -23.943)" fill="#708800"/><path d="M261.237,31.519c3.221.333,5.636,2.364,5.407,4.535s-3.015,3.657-6.239,3.315c-3.208-.336-5.627-2.372-5.4-4.535S258.02,31.176,261.237,31.519Z" transform="translate(-167.42 -22.437)" fill="#708800"/><path d="M246.847,21.406c2.373.218,4.185,1.638,4.04,3.17s-2.182,2.579-4.561,2.36-4.178-1.643-4.036-3.173S244.475,21.177,246.847,21.406Z" transform="translate(-166.083 -21.375)" fill="#708800"/><path d="M359.263,128.914c5.321,5.477,6.426,13.046,2.456,16.906s-11.5,2.541-16.828-2.934-6.427-13.05-2.454-16.907C346.4,122.117,353.938,123.434,359.263,128.914Z" transform="translate(-176.368 -32.146)" fill="#708800"/><path d="M389.076,162.168c3.909,5.178,4.267,11.5.8,14.119s-9.446.539-13.362-4.643-4.267-11.512-.8-14.12C379.18,154.9,385.16,156.977,389.076,162.168Z" transform="translate(-179.868 -35.579)" fill="#708800"/><path d="M409.848,191.528c2.324,3.686,2.208,7.94-.257,9.488s-6.351-.166-8.684-3.855c-2.315-3.69-2.2-7.934.261-9.5S407.528,187.845,409.848,191.528Z" transform="translate(-182.595 -38.809)" fill="#708800"/><path d="M328.084,67.239c6.976,5.085,10.658,11.894,8.23,15.221s-10.037,1.9-17.007-3.168-10.662-11.9-8.239-15.222S321.115,62.164,328.084,67.239Z" transform="translate(-173.241 -25.677)" fill="#708800"/><path d="M342.682,58.051c3.065,2.76,4.369,6.3,2.924,7.913s-5.111.684-8.179-2.088c-3.057-2.751-4.376-6.293-2.923-7.9S339.61,55.289,342.682,58.051Z" transform="translate(-175.722 -24.932)" fill="#708800"/><path d="M352.709,51.977c1.981,1.927,2.758,4.334,1.747,5.382s-3.44.314-5.425-1.619-2.76-4.339-1.752-5.384S350.719,50.039,352.709,51.977Z" transform="translate(-177.082 -24.374)" fill="#708800"/><path d="M359.331,97.587c3.851,5.849,4.262,12.377.906,14.593s-9.19-.743-13.042-6.595-4.261-12.386-.912-14.593S355.475,91.744,359.331,97.587Z" transform="translate(-176.785 -28.622)" fill="#708800"/><path d="M381.74,107.465c1.766,3.851,1.418,7.794-.787,8.807s-5.429-1.285-7.191-5.133-1.42-7.794.784-8.806S379.97,103.62,381.74,107.465Z" transform="translate(-179.795 -29.867)" fill="#708800"/><path d="M396.119,116.807c1.212,2.624.972,5.312-.538,6s-3.7-.881-4.9-3.5c-1.206-2.634-.971-5.321.53-6.014S394.918,114.178,396.119,116.807Z" transform="translate(-181.613 -31.029)" fill="#708800"/><path d="M277.031,124.463c8.446,5.567,12.67,14.056,9.435,18.956s-12.694,4.355-21.132-1.213-12.678-14.064-9.447-18.958C259.116,118.337,268.581,118.884,277.031,124.463Z" transform="translate(-167.4 -31.739)" fill="#708800"/><path d="M255.432,161.083c6.893,3.481,10.662,9.9,8.417,14.344s-9.649,5.2-16.539,1.718-10.655-9.9-8.409-14.344S248.538,157.6,255.432,161.083Z" transform="translate(-165.659 -35.843)" fill="#708800"/><path d="M235.5,203.036c4.124,2.084,6.018,6.646,4.225,10.193s-6.592,4.717-10.716,2.631-6.009-6.644-4.213-10.2S231.376,200.946,235.5,203.036Z" transform="translate(-164.172 -40.377)" fill="#708800"/><path d="M323.48,138.491c7.433,3.5,11.339,10.817,8.731,16.351s-10.738,7.185-18.169,3.675-11.33-10.82-8.725-16.356S316.06,134.985,323.48,138.491Z" transform="translate(-172.629 -33.502)" fill="#708800"/><path d="M335.707,176.6c3.877,2.961,4.853,8.185,2.189,11.674s-7.968,3.9-11.836.935-4.854-8.187-2.184-11.666S331.839,173.637,335.707,176.6Z" transform="translate(-174.508 -37.497)" fill="#708800"/><path d="M339.959,208.56a4.416,4.416,0,1,1-6.543.513A4.646,4.646,0,0,1,339.959,208.56Z" transform="translate(-175.583 -40.952)" fill="#708800"/><path d="M247.667,58.554c6.829,3.111,10.379,9.977,7.941,15.329s-9.951,7.175-16.772,4.073-10.383-9.964-7.937-15.332C233.336,57.272,240.85,55.449,247.667,58.554Z" transform="translate(-164.804 -25.127)" fill="#708800"/><path d="M204.255,43.737c6.154,1.682,10.3,6.133,9.262,9.924s-6.876,5.507-13.035,3.826-10.3-6.135-9.258-9.945C192.264,43.754,198.1,42.049,204.255,43.737Z" transform="translate(-160.695 -23.659)" fill="#708800"/><path d="M165.775,38.482c4.252.807,7.279,3.594,6.781,6.209s-4.347,4.089-8.605,3.28c-4.233-.812-7.276-3.6-6.772-6.221S161.521,37.665,165.775,38.482Z" transform="translate(-157.124 -23.151)" fill="#708800"/></g><g transform="translate(25.083 70.394)"><path d="M37.107,123.8a9.121,9.121,0,0,1-.617,3.487,5.831,5.831,0,0,1-2.015,2.519,9.868,9.868,0,0,1-3.705,1.527,26.912,26.912,0,0,1-5.686.509v-3.461a19.656,19.656,0,0,0,2.828-.178,5.84,5.84,0,0,0,2.047-.662,3.125,3.125,0,0,0,1.268-1.323A4.946,4.946,0,0,0,31.648,124V86.966h5.459Z" transform="translate(-25.083 -77.294)" fill="#0067b1" stroke="#0067b1" stroke-miterlimit="10" stroke-width="1.064"/><path d="M57.473,112.2a20.336,20.336,0,0,1-5.687-.789,11.1,11.1,0,0,1-3.867-1.986,7.4,7.4,0,0,1-2.178-2.926,9.519,9.519,0,0,1-.682-3.614V95.713a9.381,9.381,0,0,1,.682-3.563A7.615,7.615,0,0,1,47.919,89.2a10.885,10.885,0,0,1,3.867-2.01,20.368,20.368,0,0,1,5.687-.789h1.82a20.36,20.36,0,0,1,5.686.789,10.9,10.9,0,0,1,3.868,2.01,7.631,7.631,0,0,1,2.177,2.954,9.366,9.366,0,0,1,.684,3.563v7.177a9.5,9.5,0,0,1-.684,3.614,7.417,7.417,0,0,1-2.177,2.926,11.109,11.109,0,0,1-3.868,1.986,20.327,20.327,0,0,1-5.686.789Zm1.82-3.716q6.953-.152,6.954-5.446V95.56q0-5.294-6.954-5.447h-1.82q-6.955.153-6.954,5.447v7.483q0,5.294,6.954,5.446Z" transform="translate(-27.184 -77.234)" fill="#0067b1" stroke="#0067b1" stroke-miterlimit="10" stroke-width="1.064"/><path d="M100.849,110.618V91.785A2.138,2.138,0,0,0,99.289,89.7a10.964,10.964,0,0,0-3.737-.661,29.6,29.6,0,0,0-4.517.254,38.816,38.816,0,0,0-3.835.662v20.666H81.74V76.157H87.2v9.824q1.883-.3,4.03-.533a35.871,35.871,0,0,1,4.256-.2,31.362,31.362,0,0,1,4.064.305,11.422,11.422,0,0,1,3.444,1.018,6.569,6.569,0,0,1,2.405,1.96,5.063,5.063,0,0,1,.909,3.1v18.987Z" transform="translate(-31.043 -76.157)" fill="#0067b1" stroke="#0067b1" stroke-miterlimit="10" stroke-width="1.064"/><path d="M136.659,111.684V92.85a2.139,2.139,0,0,0-1.56-2.088,10.975,10.975,0,0,0-3.738-.661,29.6,29.6,0,0,0-4.516.254,38.867,38.867,0,0,0-3.835.662v20.666h-5.459V88.116q1.1-.254,3.347-.712t4.973-.789a46.492,46.492,0,0,1,5.589-.331,21.842,21.842,0,0,1,5.232.586,8.908,8.908,0,0,1,3.9,1.959A4.941,4.941,0,0,1,142.12,92.7v18.987Z" transform="translate(-34.811 -77.222)" fill="#0067b1" stroke="#0067b1" stroke-miterlimit="10" stroke-width="1.064"/><path d="M174.969,112.3q-5.592-.409-7.9-2.342a6.894,6.894,0,0,1-2.307-5.6V94.384a6.964,6.964,0,0,1,2.307-5.623q2.306-1.956,7.9-2.369,2.793-.1,5.524.028a37.847,37.847,0,0,1,5.589.694V90.82q-2.211-.354-4.224-.534t-3.9-.178q-4.291,0-6.044.942t-1.756,3.588v9.468a5.133,5.133,0,0,0,.423,2.214,3.233,3.233,0,0,0,1.332,1.425,6.458,6.458,0,0,0,2.4.738,27.5,27.5,0,0,0,3.64.2,28.3,28.3,0,0,0,3.9-.28q2.013-.279,4.224-.687v3.665a46.58,46.58,0,0,1-5.46.789A48.022,48.022,0,0,1,174.969,112.3Z" transform="translate(-39.778 -77.229)" fill="#0067b1" stroke="#0067b1" stroke-miterlimit="10" stroke-width="1.064"/><path d="M192.947,111.759V92.874a4.819,4.819,0,0,1,1.69-3.97,10.011,10.011,0,0,1,4.258-1.935,22.266,22.266,0,0,1,5.653-.431q3.087.128,5.882.483v3.868q-1.691-.306-3.8-.483a23.557,23.557,0,0,0-3.932-.026,8.462,8.462,0,0,0-3.054.764,1.99,1.99,0,0,0-1.236,1.884v18.732Z" transform="translate(-42.742 -77.247)" fill="#0067b1" stroke="#0067b1" stroke-miterlimit="10" stroke-width="1.064"/><path d="M216.409,103.851a7.027,7.027,0,0,1,1.527-4.887A8.26,8.26,0,0,1,222,96.6a19.921,19.921,0,0,1,5.818-.585,66.91,66.91,0,0,1,6.727.56V94.23a3.487,3.487,0,0,0-1.527-3.258q-1.529-.917-5.363-.916c-.78,0-1.593.044-2.437.127s-1.68.2-2.5.331-1.624.289-2.4.458-1.475.323-2.081.458V87.579a37.377,37.377,0,0,1,4.745-.9,39.106,39.106,0,0,1,5.006-.336,26.587,26.587,0,0,1,5.686.516,9.827,9.827,0,0,1,3.705,1.548,5.916,5.916,0,0,1,2.014,2.539A9.154,9.154,0,0,1,240,94.434v16.594q-2.666.408-5.459.789t-5.428.508a31.363,31.363,0,0,1-4.939-.127,12.23,12.23,0,0,1-4.029-1.094,6.544,6.544,0,0,1-2.731-2.444,7.688,7.688,0,0,1-1.007-4.148Zm18.134-3.665q-2.082-.306-4.291-.586a16.687,16.687,0,0,0-4.094-.05,6.226,6.226,0,0,0-3.088,1.145,3.473,3.473,0,0,0-1.2,2.952v.967a3.46,3.46,0,0,0,1.2,2.977,6.389,6.389,0,0,0,3.088,1.12,16.6,16.6,0,0,0,4.094-.051q2.209-.279,4.291-.585Z" transform="translate(-45.211 -77.228)" fill="#0067b1" stroke="#0067b1" stroke-miterlimit="10" stroke-width="1.064"/><path d="M269.73,111.684V92.85a2.139,2.139,0,0,0-1.561-2.088,10.962,10.962,0,0,0-3.736-.661,29.614,29.614,0,0,0-4.518.254,38.8,38.8,0,0,0-3.834.662v20.666h-5.46V88.116q1.1-.254,3.347-.712t4.972-.789a46.506,46.506,0,0,1,5.59-.331,21.86,21.86,0,0,1,5.233.586,8.919,8.919,0,0,1,3.9,1.959,4.941,4.941,0,0,1,1.527,3.869v18.987Z" transform="translate(-48.81 -77.222)" fill="#0067b1" stroke="#0067b1" stroke-miterlimit="10" stroke-width="1.064"/><path d="M297.029,108.432a47.1,47.1,0,0,0,4.712-.483,41.143,41.143,0,0,0,6.273-1.4v3.666a24.871,24.871,0,0,1-3.218.915q-1.656.357-3.153.586t-2.7.33q-1.2.1-1.918.1a20.319,20.319,0,0,1-5.686-.789,11.108,11.108,0,0,1-3.868-1.985,7.41,7.41,0,0,1-2.177-2.927,9.5,9.5,0,0,1-.684-3.614V95.656a9.369,9.369,0,0,1,.684-3.563,7.611,7.611,0,0,1,2.177-2.953,10.882,10.882,0,0,1,3.868-2.011,20.884,20.884,0,0,1,11.374,0,10.9,10.9,0,0,1,3.867,2.011,7.639,7.639,0,0,1,2.178,2.953,9.4,9.4,0,0,1,.682,3.563v5.5H290.075v1.832Q290.075,108.28,297.029,108.432Zm-6.954-11.249h13.91V95.5q0-5.294-6.955-5.447-6.955.152-6.954,5.447Z" transform="translate(-52.386 -77.228)" fill="#0067b1" stroke="#0067b1" stroke-miterlimit="10" stroke-width="1.064"/></g><g transform="translate(51.768 110.926)"><path d="M54.905,129.914a2.036,2.036,0,0,1,.507-1.493,2.8,2.8,0,0,1,1.349-.723,7.206,7.206,0,0,1,1.935-.179q1.09.032,2.235.171v-.715a1.037,1.037,0,0,0-.508-1,4,4,0,0,0-1.782-.28q-.389,0-.81.038t-.832.1c-.274.042-.54.088-.8.14l-.691.14v-1.177a13.479,13.479,0,0,1,1.577-.276,14.181,14.181,0,0,1,1.663-.1,9.6,9.6,0,0,1,1.889.157,3.407,3.407,0,0,1,1.231.473,1.834,1.834,0,0,1,.67.775,2.6,2.6,0,0,1,.206,1.067v5.07q-.886.125-1.815.242t-1.8.156a11.421,11.421,0,0,1-1.641-.039,4.36,4.36,0,0,1-1.34-.334,2.127,2.127,0,0,1-.907-.747,2.2,2.2,0,0,1-.335-1.267Zm6.026-1.118q-.691-.094-1.425-.18a6.066,6.066,0,0,0-1.362-.015,2.181,2.181,0,0,0-1.025.35,1.024,1.024,0,0,0-.4.9v.3a1.018,1.018,0,0,0,.4.91,2.25,2.25,0,0,0,1.025.343,6.069,6.069,0,0,0,1.362-.016q.734-.085,1.425-.179Z" transform="translate(-54.905 -121.781)" fill="#a3a3a3"/><path d="M75.187,125.479a3.036,3.036,0,0,0-1.4.273.986.986,0,0,0-.519.957,1.007,1.007,0,0,0,.173.637.943.943,0,0,0,.475.311,2.95,2.95,0,0,0,.745.109c.294.01.63.021,1,.03a6.4,6.4,0,0,1,1.858.265,2.521,2.521,0,0,1,1,.583,1.488,1.488,0,0,1,.41.77,3.587,3.587,0,0,1,.054.824,1.806,1.806,0,0,1-1.048,1.711,3.61,3.61,0,0,1-1.1.327,11.277,11.277,0,0,1-1.371.109,15.952,15.952,0,0,1-2.01-.063q-.972-.093-1.684-.217v-1.151a12.332,12.332,0,0,0,1.5.241q.832.086,1.847.1a7.856,7.856,0,0,0,.907-.047,2.07,2.07,0,0,0,.648-.171.94.94,0,0,0,.4-.343,1.177,1.177,0,0,0,.163-.575c0-.134,0-.275-.012-.42a.584.584,0,0,0-.193-.4,1.393,1.393,0,0,0-.583-.3,4.261,4.261,0,0,0-1.134-.116,14.642,14.642,0,0,1-1.469-.07,4.025,4.025,0,0,1-1.209-.3,1.8,1.8,0,0,1-.811-.669,2.2,2.2,0,0,1-.292-1.221,2.244,2.244,0,0,1,.173-.879,1.761,1.761,0,0,1,.583-.723,3.113,3.113,0,0,1,1.069-.49,6.964,6.964,0,0,1,1.673-.194q.8,0,1.664.047t1.62.156v1.089q-.713-.094-1.436-.149T75.187,125.479Z" transform="translate(-56.655 -121.763)" fill="#a3a3a3"/><path d="M95.327,132.36v-5.723a.543.543,0,0,0-.237-.466,1.539,1.539,0,0,0-.626-.242,4.62,4.62,0,0,0-.875-.062q-.486.008-.982.055c-.332.031-.651.072-.962.124s-.579.1-.81.156a1.112,1.112,0,0,1,.033.171,1.627,1.627,0,0,1,.011.187v5.8H89.063v-5.723a.626.626,0,0,0-.519-.614,4.139,4.139,0,0,0-1.241-.164,10.112,10.112,0,0,0-1.5.117c-.518.078-.944.153-1.275.225v6.158H82.713v-7.2q.411-.093,1.3-.256a19.093,19.093,0,0,1,1.944-.249,15.775,15.775,0,0,1,2.106-.031,4.805,4.805,0,0,1,1.782.4q.54-.109,1.285-.217t1.555-.164a14,14,0,0,1,1.609-.015,5.689,5.689,0,0,1,1.437.241,2.36,2.36,0,0,1,1.025.615,1.51,1.51,0,0,1,.389,1.081v5.8Z" transform="translate(-57.83 -121.785)" fill="#a3a3a3"/><path d="M102.243,122.646a.557.557,0,0,1,.27-.459,1.142,1.142,0,0,1,1.274,0,.525.525,0,0,1,0,.917,1.138,1.138,0,0,1-1.274,0A.558.558,0,0,1,102.243,122.646Zm0,9.393v-7.574h1.814v7.574Z" transform="translate(-59.885 -121.511)" fill="#a3a3a3"/><path d="M111.556,131.053a6.215,6.215,0,0,0,.745-.046c.251-.032.544-.073.875-.125v1.06a9.26,9.26,0,0,1-.918.146,8.938,8.938,0,0,1-.982.054,3.906,3.906,0,0,1-1.977-.388,1.44,1.44,0,0,1-.637-1.338V125.5h-1.858v-1.089h1.858v-2.924h1.814v2.924h2.1V125.5h-2.1v4.709a.984.984,0,0,0,.173.632Q110.822,131.053,111.556,131.053Z" transform="translate(-60.365 -121.458)" fill="#a3a3a3"/><path d="M123.052,131.982v-5.754a.663.663,0,0,0-.518-.638,3.951,3.951,0,0,0-1.243-.2,10.566,10.566,0,0,0-1.5.078q-.777.093-1.274.2v6.314H116.7V121.454h1.814v3q.627-.093,1.34-.163a12.986,12.986,0,0,1,1.416-.063,11.257,11.257,0,0,1,1.349.094,4.029,4.029,0,0,1,1.145.31,2.146,2.146,0,0,1,.8.6,1.456,1.456,0,0,1,.3.948v5.8Z" transform="translate(-61.406 -121.454)" fill="#a3a3a3"/><path d="M132.325,125.479a3.04,3.04,0,0,0-1.4.273.988.988,0,0,0-.519.957,1.007,1.007,0,0,0,.174.637.939.939,0,0,0,.475.311,2.949,2.949,0,0,0,.745.109c.294.01.63.021,1,.03a6.389,6.389,0,0,1,1.858.265,2.521,2.521,0,0,1,1,.583,1.481,1.481,0,0,1,.41.77,3.539,3.539,0,0,1,.055.824,1.806,1.806,0,0,1-1.048,1.711,3.626,3.626,0,0,1-1.1.327,11.277,11.277,0,0,1-1.372.109,15.943,15.943,0,0,1-2.009-.063q-.972-.093-1.685-.217v-1.151a12.348,12.348,0,0,0,1.5.241q.831.086,1.847.1a7.85,7.85,0,0,0,.906-.047,2.083,2.083,0,0,0,.649-.171.946.946,0,0,0,.4-.343,1.186,1.186,0,0,0,.163-.575c0-.134,0-.275-.012-.42a.585.585,0,0,0-.194-.4,1.383,1.383,0,0,0-.583-.3,4.268,4.268,0,0,0-1.135-.116,14.611,14.611,0,0,1-1.468-.07,4.038,4.038,0,0,1-1.21-.3,1.8,1.8,0,0,1-.81-.669,2.2,2.2,0,0,1-.292-1.221,2.244,2.244,0,0,1,.173-.879,1.766,1.766,0,0,1,.583-.723,3.119,3.119,0,0,1,1.07-.49,6.964,6.964,0,0,1,1.673-.194q.8,0,1.663.047t1.62.156v1.089q-.713-.094-1.437-.149T132.325,125.479Z" transform="translate(-62.666 -121.763)" fill="#a3a3a3"/><path d="M148.045,132.5a4.963,4.963,0,0,1-2.624-.716,2.027,2.027,0,0,1-.767-1.711v-3.048a2.046,2.046,0,0,1,.767-1.717,4.921,4.921,0,0,1,2.624-.725c.62-.021,1.231-.018,1.837.008a13.752,13.752,0,0,1,1.857.213v1.132q-.734-.109-1.4-.163c-.447-.037-.88-.055-1.3-.055a4.965,4.965,0,0,0-2.01.287,1.107,1.107,0,0,0-.583,1.1v2.892a1.475,1.475,0,0,0,.14.677,1.04,1.04,0,0,0,.443.435,2.3,2.3,0,0,0,.8.226,10.034,10.034,0,0,0,1.211.062,10.2,10.2,0,0,0,1.3-.086q.668-.085,1.4-.209v1.119a16.787,16.787,0,0,1-1.814.241A17.107,17.107,0,0,1,148.045,132.5Z" transform="translate(-64.347 -121.781)" fill="#a3a3a3"/><path d="M158.895,132.467a7.32,7.32,0,0,1-1.89-.241,3.82,3.82,0,0,1-1.286-.607,2.293,2.293,0,0,1-.724-.895,2.7,2.7,0,0,1-.226-1.1v-2.192a2.668,2.668,0,0,1,.226-1.089,2.359,2.359,0,0,1,.724-.9,3.741,3.741,0,0,1,1.286-.614,7.318,7.318,0,0,1,1.89-.242h.6a7.334,7.334,0,0,1,1.89.242,3.752,3.752,0,0,1,1.285.614,2.35,2.35,0,0,1,.724.9,2.668,2.668,0,0,1,.226,1.089v2.192a2.7,2.7,0,0,1-.226,1.1,2.285,2.285,0,0,1-.724.895,3.831,3.831,0,0,1-1.285.607,7.336,7.336,0,0,1-1.89.241Zm.6-1.135q2.31-.048,2.311-1.664v-2.287q0-1.616-2.311-1.663h-.6q-2.313.047-2.311,1.663v2.287q0,1.617,2.311,1.664Z" transform="translate(-65.411 -121.783)" fill="#a3a3a3"/><path d="M180.492,132.36v-5.723a.544.544,0,0,0-.238-.466,1.539,1.539,0,0,0-.626-.242,4.615,4.615,0,0,0-.875-.062q-.486.008-.983.055t-.962.124q-.463.078-.81.156a1.112,1.112,0,0,1,.033.171,1.63,1.63,0,0,1,.011.187v5.8h-1.815v-5.723a.626.626,0,0,0-.519-.614,4.139,4.139,0,0,0-1.241-.164,10.112,10.112,0,0,0-1.5.117c-.518.078-.944.153-1.275.225v6.158h-1.814v-7.2q.411-.093,1.3-.256a19.094,19.094,0,0,1,1.944-.249,15.764,15.764,0,0,1,2.105-.031,4.806,4.806,0,0,1,1.782.4c.36-.072.789-.145,1.285-.217s1.016-.127,1.556-.164a13.987,13.987,0,0,1,1.608-.015,5.689,5.689,0,0,1,1.437.241,2.36,2.36,0,0,1,1.025.615,1.51,1.51,0,0,1,.389,1.081v5.8Z" transform="translate(-66.79 -121.785)" fill="#a3a3a3"/><path d="M195.729,126.942V130.1a2.037,2.037,0,0,1-.507,1.493,2.817,2.817,0,0,1-1.35.723,7.207,7.207,0,0,1-1.934.179q-1.091-.032-2.235-.171v3.235h-1.814V124.952q.884-.125,1.814-.242t1.8-.156a11.319,11.319,0,0,1,1.642.039,4.349,4.349,0,0,1,1.339.334,2.123,2.123,0,0,1,.906.747A2.2,2.2,0,0,1,195.729,126.942ZM189.7,131.2c.447.063.917.123,1.415.179a6.159,6.159,0,0,0,1.372.016,2.254,2.254,0,0,0,1.026-.343,1.018,1.018,0,0,0,.4-.91V126.9a1.024,1.024,0,0,0-.4-.9,2.184,2.184,0,0,0-1.026-.35,6.157,6.157,0,0,0-1.372.015c-.5.057-.968.116-1.415.179Z" transform="translate(-68.895 -121.779)" fill="#a3a3a3"/><path d="M200.079,129.914a2.04,2.04,0,0,1,.506-1.493,2.805,2.805,0,0,1,1.35-.723,7.2,7.2,0,0,1,1.934-.179q1.091.032,2.235.171v-.715a1.037,1.037,0,0,0-.507-1,4,4,0,0,0-1.782-.28q-.389,0-.81.038t-.832.1c-.274.042-.54.088-.8.14l-.691.14v-1.177a13.479,13.479,0,0,1,1.577-.276,14.181,14.181,0,0,1,1.663-.1,9.6,9.6,0,0,1,1.889.157,3.407,3.407,0,0,1,1.231.473,1.834,1.834,0,0,1,.67.775,2.6,2.6,0,0,1,.206,1.067v5.07q-.886.125-1.816.242t-1.8.156a11.417,11.417,0,0,1-1.641-.039,4.36,4.36,0,0,1-1.34-.334,2.127,2.127,0,0,1-.907-.747,2.2,2.2,0,0,1-.335-1.267ZM206.1,128.8q-.69-.094-1.425-.18a6.066,6.066,0,0,0-1.362-.015,2.177,2.177,0,0,0-1.025.35,1.024,1.024,0,0,0-.4.9v.3a1.019,1.019,0,0,0,.4.91,2.246,2.246,0,0,0,1.025.343,6.069,6.069,0,0,0,1.362-.016q.734-.085,1.425-.179Z" transform="translate(-70.177 -121.781)" fill="#a3a3a3"/><path d="M218.765,132.308v-5.754a.663.663,0,0,0-.518-.638,3.951,3.951,0,0,0-1.243-.2,10.566,10.566,0,0,0-1.5.078q-.777.093-1.274.2v6.314h-1.814v-7.2q.366-.078,1.112-.217t1.653-.241a16.6,16.6,0,0,1,1.857-.1,7.875,7.875,0,0,1,1.739.179,3.067,3.067,0,0,1,1.3.6,1.448,1.448,0,0,1,.507,1.181v5.8Z" transform="translate(-71.475 -121.779)" fill="#a3a3a3"/><path d="M225.208,124.756h1.815v5.365a1.02,1.02,0,0,0,.4.91,2.232,2.232,0,0,0,1.025.342,5.964,5.964,0,0,0,1.362-.015q.733-.086,1.425-.179v-6.423h1.815V133.2a2.6,2.6,0,0,1-.2,1.066,1.819,1.819,0,0,1-.67.77,3.455,3.455,0,0,1-1.231.466,9.768,9.768,0,0,1-1.89.155q-.8,0-1.663-.085t-1.576-.21v-1.135c.2.031.431.064.691.1s.525.07.8.1.55.057.831.078.551.031.811.031a4.014,4.014,0,0,0,1.782-.279,1.039,1.039,0,0,0,.507-1V132.3q-1.145.14-2.235.17a7.169,7.169,0,0,1-1.934-.178,2.805,2.805,0,0,1-1.35-.723,2.038,2.038,0,0,1-.507-1.493Z" transform="translate(-72.821 -121.801)" fill="#a3a3a3"/></g></g></svg>